<svg width="188" height="80" viewBox="0 0 188 80" fill="none" xmlns="http://www.w3.org/2000/svg">
<path d="M147.167 43.3332V36.6665L151.334 39.7776L147.167 43.3332Z" fill="#38413B" stroke="#38413B" stroke-width="0.833333"/>
<path d="M147.772 10.872C148.316 10.872 148.712 10.78 148.96 10.596C149.208 10.412 149.332 10.152 149.332 9.816C149.332 9.616 149.288 9.444 149.2 9.3C149.12 9.156 149 9.028 148.84 8.916C148.688 8.796 148.5 8.688 148.276 8.592C148.052 8.488 147.796 8.388 147.508 8.292C147.22 8.188 146.94 8.076 146.668 7.956C146.404 7.828 146.168 7.672 145.96 7.488C145.76 7.304 145.596 7.084 145.468 6.828C145.348 6.572 145.288 6.264 145.288 5.904C145.288 5.152 145.548 4.564 146.068 4.14C146.588 3.708 147.296 3.492 148.192 3.492C148.712 3.492 149.172 3.552 149.572 3.672C149.98 3.784 150.3 3.908 150.532 4.044L150.064 5.268C149.792 5.116 149.492 5 149.164 4.92C148.844 4.84 148.512 4.8 148.168 4.8C147.76 4.8 147.44 4.884 147.208 5.052C146.984 5.22 146.872 5.456 146.872 5.76C146.872 5.944 146.908 6.104 146.98 6.24C147.06 6.368 147.168 6.484 147.304 6.588C147.448 6.692 147.612 6.788 147.796 6.876C147.988 6.964 148.196 7.048 148.42 7.128C148.812 7.272 149.16 7.42 149.464 7.572C149.776 7.716 150.036 7.892 150.244 8.1C150.46 8.3 150.624 8.54 150.736 8.82C150.848 9.092 150.904 9.424 150.904 9.816C150.904 10.568 150.636 11.152 150.1 11.568C149.572 11.976 148.796 12.18 147.772 12.18C147.428 12.18 147.112 12.156 146.824 12.108C146.544 12.068 146.292 12.016 146.068 11.952C145.852 11.888 145.664 11.824 145.504 11.76C145.344 11.688 145.216 11.624 145.12 11.568L145.564 10.332C145.78 10.452 146.072 10.572 146.44 10.692C146.808 10.812 147.252 10.872 147.772 10.872Z" fill="#718176"/>
<path d="M156.77 12.2431L159.952 4.56013L164.886 6.60366L164.395 7.78992L160.858 6.32501L160.073 8.22081L163.221 9.52499L162.739 10.6891L159.591 9.38489L158.658 11.6355L162.461 13.2106L161.97 14.3969L156.77 12.2431Z" fill="#718176"/>
<path d="M166.725 17.712L172.605 11.8317L176.381 15.6077L175.473 16.5156L172.767 13.8088L171.316 15.2598L173.725 17.6696L172.834 18.5606L170.425 16.1507L168.702 17.8733L171.613 20.7837L170.705 21.6916L166.725 17.712Z" fill="#718176"/>
<path d="M184.316 41.8077V43.3197H176V41.8077H179.684V38.1957H176V36.6837H184.316V38.1957H180.992V41.8077H184.316Z" fill="#718176"/>
<path d="M179.505 50.6021C179.084 50.4276 178.678 50.3201 178.288 50.2797C177.905 50.2424 177.552 50.2692 177.229 50.3604C176.909 50.462 176.625 50.6257 176.376 50.8514C176.126 51.0772 175.928 51.3674 175.781 51.7222C175.637 52.0696 175.574 52.4112 175.59 52.7472C175.607 53.0832 175.694 53.3962 175.851 53.6864C176.012 53.9869 176.241 54.2594 176.538 54.5037C176.843 54.7511 177.206 54.962 177.627 55.1365C178.048 55.311 178.45 55.4169 178.833 55.4543C179.224 55.4947 179.578 55.4641 179.897 55.3625C180.221 55.2714 180.507 55.1129 180.757 54.8872C181.006 54.6614 181.203 54.3749 181.347 54.0275C181.494 53.6727 181.559 53.3273 181.542 52.9914C181.525 52.6554 181.436 52.3371 181.275 52.0365C181.111 51.7433 180.88 51.4746 180.583 51.2303C180.286 50.986 179.927 50.7766 179.505 50.6021ZM177.021 56.5999C176.363 56.3274 175.824 55.9873 175.404 55.5796C174.981 55.1793 174.67 54.7387 174.471 54.2579C174.276 53.7875 174.187 53.2917 174.204 52.7704C174.221 52.2491 174.335 51.7335 174.546 51.2235C174.757 50.7136 175.043 50.2647 175.403 49.8768C175.759 49.4964 176.174 49.2051 176.648 49.0028C177.126 48.8111 177.657 48.7195 178.242 48.7281C178.828 48.7367 179.449 48.8773 180.107 49.1497C180.765 49.4222 181.3 49.7608 181.712 50.1655C182.132 50.5732 182.442 51.0175 182.641 51.4983C182.837 51.9865 182.927 52.4912 182.91 53.0125C182.893 53.5338 182.781 54.0457 182.573 54.5483C182.364 55.0509 182.082 55.4924 181.725 55.8728C181.369 56.2533 180.951 56.5394 180.474 56.7312C179.993 56.9303 179.46 57.0256 178.874 57.017C178.297 57.0114 177.679 56.8724 177.021 56.5999Z" fill="#718176"/>
<path d="M173.093 66.3562C172.697 66.1412 172.281 65.9178 171.845 65.6859C171.415 65.4596 170.98 65.2333 170.539 65.007C170.097 64.7921 169.662 64.5771 169.232 64.3622C168.802 64.1585 168.395 63.9662 168.01 63.7852C168.231 64.1755 168.48 64.5884 168.757 65.024C169.04 65.4652 169.334 65.9178 169.639 66.3817C169.95 66.8512 170.27 67.3235 170.598 67.7987C170.92 68.2795 171.243 68.749 171.565 69.2073L170.462 70.3103C169.597 69.0489 168.793 67.8044 168.052 66.5768C167.317 65.3549 166.652 64.1472 166.058 62.9536L167.077 61.9354C168.661 62.6368 170.335 63.4571 172.1 64.3961C171.625 63.5023 171.186 62.6396 170.785 61.8081C170.383 60.9765 170.001 60.1648 169.639 59.3728L170.657 58.3546C171.857 58.9429 173.067 59.6047 174.289 60.3401C175.511 61.0868 176.753 61.8929 178.014 62.7584L176.869 63.904C176.416 63.5872 175.952 63.2647 175.477 62.9366C174.996 62.6142 174.521 62.2974 174.052 61.9863C173.582 61.6865 173.124 61.398 172.677 61.1208C172.23 60.8436 171.811 60.5947 171.421 60.3741C171.602 60.7701 171.797 61.1802 172.007 61.6044C172.216 62.04 172.431 62.4756 172.651 62.9112C172.878 63.3524 173.107 63.7852 173.339 64.2094C173.565 64.6393 173.789 65.0495 174.009 65.4398L173.093 66.3562Z" fill="#718176"/>
<path d="M148.756 76.316H147.244V68H148.756V76.316Z" fill="#718176"/>
<path d="M130.655 73.2061L131.155 71.9977L133.517 72.9758L136.199 66.5013L137.607 67.0845L134.925 73.5591L137.286 74.5372L136.786 75.7456L130.655 73.2061Z" fill="#718176"/>
<path d="M114.048 53.0967C114.398 52.8131 114.764 52.5145 115.145 52.2008C115.518 51.8902 115.894 51.5744 116.272 51.2533C116.639 50.9279 117.004 50.6078 117.368 50.2929C117.72 49.9736 118.054 49.6709 118.368 49.3848C117.923 49.4392 117.446 49.5112 116.938 49.6006C116.422 49.693 115.891 49.7916 115.346 49.8963C114.793 50.0041 114.234 50.1186 113.67 50.2399C113.102 50.3538 112.545 50.472 111.998 50.5945L111.401 49.1533C112.898 48.8364 114.355 48.5705 115.773 48.3557C117.183 48.1438 118.553 47.9919 119.883 47.9L120.434 49.2303C119.18 50.4253 117.782 51.6583 116.239 52.9296C117.246 52.8326 118.211 52.7577 119.133 52.7049C120.055 52.652 120.951 52.6099 121.821 52.5785L122.372 53.9089C121.37 54.7917 120.295 55.6568 119.148 56.5043C117.991 57.3474 116.771 58.1861 115.488 59.0203L114.868 57.5236C115.334 57.2268 115.81 56.9216 116.295 56.6082C116.777 56.2873 117.251 55.9695 117.718 55.6548C118.175 55.3358 118.617 55.0229 119.044 54.7161C119.471 54.4093 119.861 54.1178 120.214 53.8416C119.779 53.8573 119.326 53.8807 118.854 53.9117C118.371 53.9383 117.886 53.9703 117.399 54.0074C116.905 54.0476 116.418 54.0936 115.937 54.1456C115.453 54.1901 114.989 54.2396 114.544 54.294L114.048 53.0967Z" fill="#718176"/>
<path d="M115.836 42.4612C116.292 42.4612 116.708 42.4052 117.084 42.2932C117.452 42.1812 117.768 42.0212 118.032 41.8132C118.288 41.5972 118.488 41.3372 118.632 41.0332C118.776 40.7292 118.848 40.3852 118.848 40.0012C118.848 39.6252 118.776 39.2852 118.632 38.9812C118.488 38.6772 118.288 38.4212 118.032 38.2132C117.768 37.9972 117.452 37.8332 117.084 37.7212C116.708 37.6092 116.292 37.5532 115.836 37.5532C115.38 37.5532 114.968 37.6092 114.6 37.7212C114.224 37.8332 113.908 37.9972 113.652 38.2132C113.388 38.4212 113.184 38.6772 113.04 38.9812C112.896 39.2852 112.824 39.6252 112.824 40.0012C112.824 40.3852 112.896 40.7292 113.04 41.0332C113.184 41.3372 113.388 41.5972 113.652 41.8132C113.916 42.0212 114.232 42.1812 114.6 42.2932C114.968 42.4052 115.38 42.4612 115.836 42.4612ZM115.836 35.9692C116.548 35.9692 117.176 36.0772 117.72 36.2932C118.264 36.5012 118.72 36.7892 119.088 37.1572C119.448 37.5172 119.72 37.9412 119.904 38.4292C120.088 38.9172 120.18 39.4372 120.18 39.9892C120.18 40.5412 120.088 41.0652 119.904 41.5612C119.72 42.0492 119.448 42.4772 119.088 42.8452C118.72 43.2052 118.264 43.4932 117.72 43.7092C117.176 43.9252 116.548 44.0332 115.836 44.0332C115.124 44.0332 114.5 43.9252 113.964 43.7092C113.42 43.4932 112.964 43.2012 112.596 42.8332C112.228 42.4572 111.952 42.0252 111.768 41.5372C111.584 41.0492 111.492 40.5332 111.492 39.9892C111.492 39.4452 111.584 38.9292 111.768 38.4412C111.952 37.9532 112.228 37.5292 112.596 37.1692C112.964 36.8012 113.42 36.5092 113.964 36.2932C114.5 36.0772 115.124 35.9692 115.836 35.9692Z" fill="#718176"/>
<path d="M113.314 26.0108C113.773 24.9022 114.327 24.1401 114.975 23.7246C115.627 23.3017 116.37 23.2632 117.205 23.6091C118.247 24.0408 118.74 24.8469 118.684 26.0273C118.912 25.9573 119.185 25.8841 119.503 25.8077C119.82 25.7314 120.161 25.6605 120.526 25.5951C120.883 25.5267 121.249 25.4702 121.622 25.4257C121.988 25.3782 122.343 25.3476 122.686 25.334L122.039 26.8972C121.715 26.9274 121.386 26.9687 121.052 27.0211C120.711 27.0704 120.38 27.128 120.058 27.1939C119.732 27.2494 119.425 27.3125 119.136 27.3833C118.839 27.451 118.573 27.5183 118.338 27.5852C118.302 27.6918 118.269 27.782 118.239 27.8559C118.208 27.9298 118.179 28 118.151 28.0666L117.871 28.7428L120.776 29.946L120.197 31.3429L112.625 28.2064C112.692 27.8358 112.794 27.4538 112.931 27.0602C113.061 26.6637 113.188 26.3139 113.314 26.0108ZM114.564 26.4116C114.441 26.7072 114.339 26.9853 114.257 27.2458L116.74 28.2744L116.993 27.6647C117.134 27.3247 117.239 27.0177 117.31 26.7437C117.38 26.4697 117.402 26.2278 117.376 26.018C117.354 25.8008 117.279 25.6142 117.154 25.4582C117.028 25.3021 116.839 25.1721 116.588 25.068C116.351 24.97 116.133 24.9317 115.934 24.953C115.735 24.9744 115.552 25.0501 115.385 25.1803C115.222 25.3031 115.074 25.4714 114.942 25.6853C114.803 25.896 114.677 26.1381 114.564 26.4116Z" fill="#718176"/>
<path d="M129.089 17.8992C128.715 17.82 128.308 17.7521 127.867 17.6956C127.426 17.639 126.982 17.6022 126.535 17.5853C126.093 17.5626 125.655 17.5598 125.219 17.5768C124.784 17.5937 124.379 17.6362 124.006 17.7041L126.645 20.343L125.576 21.4121L119.696 15.5318L120.765 14.4627L123.191 16.8895C123.191 16.5161 123.189 16.123 123.183 15.71C123.172 15.2914 123.158 14.8756 123.141 14.4627C123.124 14.0384 123.104 13.634 123.081 13.2493C123.059 12.8646 123.039 12.5167 123.022 12.2056L124.303 10.9243C124.331 11.326 124.357 11.7474 124.379 12.1886C124.402 12.6299 124.422 13.0796 124.439 13.5378C124.45 13.9903 124.459 14.4457 124.464 14.9039C124.476 15.3565 124.478 15.7949 124.473 16.2191C124.891 16.1626 125.344 16.1343 125.83 16.1343C126.317 16.123 126.818 16.1371 127.332 16.1767C127.841 16.2106 128.353 16.27 128.868 16.3549C129.383 16.4284 129.878 16.5218 130.353 16.6349L129.089 17.8992Z" fill="#718176"/>
<path d="M136.26 12.2531C136.763 12.0449 137.093 11.8084 137.252 11.5435C137.411 11.2786 137.426 10.9909 137.297 10.6805C137.221 10.4957 137.114 10.3536 136.978 10.2543C136.849 10.1518 136.689 10.0795 136.498 10.0373C136.312 9.98456 136.097 9.95672 135.853 9.95375C135.607 9.94339 135.332 9.94897 135.029 9.97049C134.723 9.98462 134.421 9.9883 134.124 9.98152C133.831 9.96429 133.554 9.91048 133.291 9.82009C133.036 9.72663 132.8 9.58613 132.584 9.39861C132.375 9.20801 132.202 8.94642 132.064 8.61382C131.776 7.91907 131.791 7.27633 132.11 6.68561C132.425 6.0875 132.996 5.617 133.824 5.27411C134.304 5.07512 134.752 4.95452 135.168 4.91231C135.588 4.85965 135.931 4.85175 136.197 4.88861L136.233 6.19854C135.924 6.1622 135.602 6.16983 135.268 6.22144C134.942 6.26999 134.62 6.36009 134.302 6.49173C133.925 6.64787 133.662 6.84793 133.512 7.09193C133.369 7.33286 133.356 7.59375 133.472 7.87461C133.543 8.04461 133.637 8.17865 133.756 8.27675C133.879 8.36439 134.023 8.43023 134.188 8.47427C134.361 8.51524 134.549 8.54118 134.753 8.55206C134.964 8.55989 135.188 8.5579 135.426 8.54609C135.843 8.52911 136.221 8.53267 136.56 8.55677C136.904 8.57041 137.211 8.63351 137.483 8.74608C137.759 8.8482 138.003 9.00717 138.213 9.223C138.421 9.43143 138.6 9.71673 138.75 10.0789C139.037 10.7736 139.013 11.4158 138.677 12.0052C138.346 12.5842 137.707 13.0696 136.761 13.4615C136.443 13.5931 136.142 13.6919 135.857 13.7578C135.583 13.828 135.331 13.8764 135.099 13.903C134.875 13.9265 134.677 13.9393 134.505 13.9414C134.329 13.9361 134.186 13.926 134.076 13.911L134.014 12.5991C134.259 12.6273 134.575 12.6265 134.961 12.5965C135.347 12.5665 135.78 12.4521 136.26 12.2531Z" fill="#718176"/>
<circle cx="160.5" cy="70.8332" r="1.66667" fill="#626C65"/>
<circle cx="178" cy="25.8332" r="1.66667" fill="#626C65"/>
<circle cx="124.667" cy="64.1667" r="1.66667" fill="#626C65"/>
<path d="M9.486 9.93C9.678 10.578 9.882 11.256 10.098 11.964C10.314 12.66 10.536 13.362 10.764 14.07C11.004 14.766 11.238 15.456 11.466 16.14C11.706 16.812 11.934 17.448 12.15 18.048C12.33 17.4 12.504 16.698 12.672 15.942C12.84 15.174 13.008 14.382 13.176 13.566C13.344 12.738 13.506 11.898 13.662 11.046C13.83 10.194 13.986 9.354 14.13 8.526H16.47C16.05 10.782 15.582 12.954 15.066 15.042C14.55 17.118 13.974 19.104 13.338 21H11.178C10.242 18.576 9.336 15.93 8.46 13.062C8.016 14.514 7.566 15.894 7.11 17.202C6.654 18.51 6.198 19.776 5.742 21H3.582C2.934 19.104 2.352 17.118 1.836 15.042C1.332 12.954 0.87 10.782 0.45 8.526H2.88C3.024 9.342 3.174 10.176 3.33 11.028C3.498 11.88 3.666 12.72 3.834 13.548C4.014 14.364 4.194 15.156 4.374 15.924C4.554 16.692 4.734 17.4 4.914 18.048C5.142 17.436 5.37 16.794 5.598 16.122C5.838 15.438 6.072 14.748 6.3 14.052C6.528 13.344 6.744 12.642 6.948 11.946C7.164 11.25 7.362 10.578 7.542 9.93H9.486ZM21.296 19.47C21.968 19.47 22.478 19.434 22.826 19.362V16.95C22.706 16.914 22.532 16.878 22.304 16.842C22.076 16.806 21.824 16.788 21.548 16.788C21.308 16.788 21.062 16.806 20.81 16.842C20.57 16.878 20.348 16.944 20.144 17.04C19.952 17.136 19.796 17.274 19.676 17.454C19.556 17.622 19.496 17.838 19.496 18.102C19.496 18.618 19.658 18.978 19.982 19.182C20.306 19.374 20.744 19.47 21.296 19.47ZM21.116 11.352C21.836 11.352 22.442 11.442 22.934 11.622C23.426 11.802 23.816 12.054 24.104 12.378C24.404 12.702 24.614 13.098 24.734 13.566C24.866 14.022 24.932 14.526 24.932 15.078V20.784C24.596 20.856 24.086 20.94 23.402 21.036C22.73 21.144 21.968 21.198 21.116 21.198C20.552 21.198 20.036 21.144 19.568 21.036C19.1 20.928 18.698 20.754 18.362 20.514C18.038 20.274 17.78 19.962 17.588 19.578C17.408 19.194 17.318 18.72 17.318 18.156C17.318 17.616 17.42 17.16 17.624 16.788C17.84 16.416 18.128 16.116 18.488 15.888C18.848 15.648 19.262 15.48 19.73 15.384C20.21 15.276 20.708 15.222 21.224 15.222C21.464 15.222 21.716 15.24 21.98 15.276C22.244 15.3 22.526 15.348 22.826 15.42V15.06C22.826 14.808 22.796 14.568 22.736 14.34C22.676 14.112 22.568 13.914 22.412 13.746C22.268 13.566 22.07 13.428 21.818 13.332C21.578 13.236 21.272 13.188 20.9 13.188C20.396 13.188 19.934 13.224 19.514 13.296C19.094 13.368 18.752 13.452 18.488 13.548L18.218 11.784C18.494 11.688 18.896 11.592 19.424 11.496C19.952 11.4 20.516 11.352 21.116 11.352ZM27.6712 9.102L29.8492 8.742V11.586H33.1972V13.404H29.8492V17.238C29.8492 17.994 29.9692 18.534 30.2092 18.858C30.4492 19.182 30.8572 19.344 31.4332 19.344C31.8292 19.344 32.1772 19.302 32.4772 19.218C32.7892 19.134 33.0352 19.056 33.2152 18.984L33.5752 20.712C33.3232 20.82 32.9932 20.928 32.5852 21.036C32.1772 21.156 31.6972 21.216 31.1452 21.216C30.4732 21.216 29.9092 21.126 29.4532 20.946C29.0092 20.766 28.6552 20.508 28.3912 20.172C28.1272 19.824 27.9412 19.41 27.8332 18.93C27.7252 18.438 27.6712 17.88 27.6712 17.256V9.102ZM34.7673 16.302C34.7673 15.606 34.8753 14.958 35.0913 14.358C35.3073 13.746 35.6133 13.218 36.0093 12.774C36.4173 12.33 36.9093 11.982 37.4853 11.73C38.0613 11.478 38.7093 11.352 39.4293 11.352C40.3173 11.352 41.1573 11.514 41.9493 11.838L41.4813 13.62C41.2293 13.512 40.9413 13.422 40.6173 13.35C40.3053 13.278 39.9693 13.242 39.6093 13.242C38.7573 13.242 38.1093 13.512 37.6653 14.052C37.2213 14.58 36.9993 15.33 36.9993 16.302C36.9993 17.238 37.2093 17.982 37.6293 18.534C38.0493 19.074 38.7573 19.344 39.7533 19.344C40.1253 19.344 40.4913 19.308 40.8513 19.236C41.2113 19.164 41.5233 19.074 41.7873 18.966L42.0933 20.766C41.8533 20.886 41.4873 20.994 40.9953 21.09C40.5153 21.186 40.0173 21.234 39.5013 21.234C38.6973 21.234 37.9953 21.114 37.3953 20.874C36.8073 20.622 36.3153 20.28 35.9193 19.848C35.5353 19.404 35.2473 18.882 35.0553 18.282C34.8633 17.67 34.7673 17.01 34.7673 16.302ZM43.9595 21V7.392L46.1375 7.032V11.694C46.3775 11.61 46.6535 11.538 46.9655 11.478C47.2895 11.418 47.6075 11.388 47.9195 11.388C48.6755 11.388 49.2995 11.496 49.7915 11.712C50.2955 11.916 50.6975 12.21 50.9975 12.594C51.2975 12.966 51.5075 13.416 51.6275 13.944C51.7595 14.472 51.8255 15.06 51.8255 15.708V21H49.6475V16.05C49.6475 15.546 49.6115 15.12 49.5395 14.772C49.4795 14.412 49.3715 14.124 49.2155 13.908C49.0715 13.68 48.8735 13.518 48.6215 13.422C48.3695 13.314 48.0575 13.26 47.6855 13.26C47.3975 13.26 47.1035 13.29 46.8035 13.35C46.5035 13.41 46.2815 13.464 46.1375 13.512V21H43.9595ZM67.5113 16.284C67.5113 17.028 67.4033 17.706 67.1873 18.318C66.9713 18.93 66.6653 19.452 66.2693 19.884C65.8733 20.316 65.3933 20.652 64.8293 20.892C64.2773 21.132 63.6653 21.252 62.9933 21.252C62.3213 21.252 61.7093 21.132 61.1573 20.892C60.6053 20.652 60.1313 20.316 59.7353 19.884C59.3393 19.452 59.0273 18.93 58.7993 18.318C58.5833 17.706 58.4753 17.028 58.4753 16.284C58.4753 15.54 58.5833 14.868 58.7993 14.268C59.0273 13.656 59.3393 13.134 59.7353 12.702C60.1433 12.27 60.6233 11.94 61.1753 11.712C61.7273 11.472 62.3333 11.352 62.9933 11.352C63.6533 11.352 64.2593 11.472 64.8113 11.712C65.3753 11.94 65.8553 12.27 66.2513 12.702C66.6473 13.134 66.9533 13.656 67.1693 14.268C67.3973 14.868 67.5113 15.54 67.5113 16.284ZM65.2793 16.284C65.2793 15.348 65.0753 14.61 64.6673 14.07C64.2713 13.518 63.7133 13.242 62.9933 13.242C62.2733 13.242 61.7093 13.518 61.3013 14.07C60.9053 14.61 60.7073 15.348 60.7073 16.284C60.7073 17.232 60.9053 17.982 61.3013 18.534C61.7093 19.086 62.2733 19.362 62.9933 19.362C63.7133 19.362 64.2713 19.086 64.6673 18.534C65.0753 17.982 65.2793 17.232 65.2793 16.284ZM77.6571 20.712C77.2371 20.82 76.6911 20.928 76.0191 21.036C75.3471 21.156 74.6091 21.216 73.8051 21.216C73.0491 21.216 72.4131 21.108 71.8971 20.892C71.3931 20.676 70.9851 20.376 70.6731 19.992C70.3731 19.608 70.1571 19.152 70.0251 18.624C69.8931 18.084 69.8271 17.496 69.8271 16.86V11.586H72.0051V16.518C72.0051 17.526 72.1491 18.246 72.4371 18.678C72.7371 19.11 73.2531 19.326 73.9851 19.326C74.2491 19.326 74.5251 19.314 74.8131 19.29C75.1131 19.266 75.3351 19.236 75.4791 19.2V11.586H77.6571V20.712ZM85.9732 13.548C85.7932 13.488 85.5412 13.428 85.2172 13.368C84.9052 13.296 84.5392 13.26 84.1192 13.26C83.8792 13.26 83.6212 13.284 83.3452 13.332C83.0812 13.38 82.8952 13.422 82.7872 13.458V21H80.6092V12.036C81.0292 11.88 81.5512 11.736 82.1752 11.604C82.8112 11.46 83.5132 11.388 84.2812 11.388C84.4252 11.388 84.5932 11.4 84.7852 11.424C84.9772 11.436 85.1692 11.46 85.3612 11.496C85.5532 11.52 85.7392 11.556 85.9192 11.604C86.0992 11.64 86.2432 11.676 86.3512 11.712L85.9732 13.548ZM3.798 46C3.198 44.764 2.58 43.348 1.944 41.752C1.32 40.144 0.75 38.422 0.234 36.586H2.556C2.688 37.114 2.838 37.684 3.006 38.296C3.186 38.896 3.372 39.502 3.564 40.114C3.768 40.714 3.972 41.302 4.176 41.878C4.392 42.442 4.59 42.952 4.77 43.408C4.95 42.952 5.142 42.442 5.346 41.878C5.55 41.302 5.748 40.714 5.94 40.114C6.144 39.502 6.336 38.896 6.516 38.296C6.696 37.684 6.852 37.114 6.984 36.586H9.234C8.718 38.422 8.142 40.144 7.506 41.752C6.882 43.348 6.27 44.764 5.67 46H3.798ZM13.2366 46H11.0586V36.586H13.2366V46ZM13.4706 33.832C13.4706 34.24 13.3386 34.564 13.0746 34.804C12.8106 35.044 12.4986 35.164 12.1386 35.164C11.7666 35.164 11.4486 35.044 11.1846 34.804C10.9206 34.564 10.7886 34.24 10.7886 33.832C10.7886 33.412 10.9206 33.082 11.1846 32.842C11.4486 32.602 11.7666 32.482 12.1386 32.482C12.4986 32.482 12.8106 32.602 13.0746 32.842C13.3386 33.082 13.4706 33.412 13.4706 33.832ZM17.9052 41.266C17.9052 42.226 18.1332 42.982 18.5892 43.534C19.0452 44.074 19.6752 44.344 20.4792 44.344C20.8272 44.344 21.1212 44.332 21.3612 44.308C21.6132 44.272 21.8172 44.236 21.9732 44.2V38.8C21.7812 38.668 21.5232 38.548 21.1992 38.44C20.8872 38.32 20.5512 38.26 20.1912 38.26C19.3992 38.26 18.8172 38.53 18.4452 39.07C18.0852 39.61 17.9052 40.342 17.9052 41.266ZM24.1512 45.712C23.7192 45.844 23.1732 45.964 22.5132 46.072C21.8652 46.18 21.1812 46.234 20.4612 46.234C19.7172 46.234 19.0512 46.12 18.4632 45.892C17.8752 45.664 17.3712 45.34 16.9512 44.92C16.5432 44.488 16.2252 43.972 15.9972 43.372C15.7812 42.76 15.6732 42.076 15.6732 41.32C15.6732 40.576 15.7632 39.904 15.9432 39.304C16.1352 38.692 16.4112 38.17 16.7712 37.738C17.1312 37.306 17.5692 36.976 18.0852 36.748C18.6012 36.508 19.1952 36.388 19.8672 36.388C20.3232 36.388 20.7252 36.442 21.0732 36.55C21.4212 36.658 21.7212 36.778 21.9732 36.91V32.392L24.1512 32.032V45.712ZM26.5759 41.338C26.5759 40.51 26.6959 39.784 26.9359 39.16C27.1879 38.536 27.5179 38.02 27.9259 37.612C28.3339 37.192 28.8019 36.88 29.3299 36.676C29.8579 36.46 30.3979 36.352 30.9499 36.352C32.2459 36.352 33.2539 36.754 33.9739 37.558C34.7059 38.362 35.0719 39.562 35.0719 41.158C35.0719 41.278 35.0659 41.416 35.0539 41.572C35.0539 41.716 35.0479 41.848 35.0359 41.968H28.8259C28.8859 42.724 29.1499 43.312 29.6179 43.732C30.0979 44.14 30.7879 44.344 31.6879 44.344C32.2159 44.344 32.6959 44.296 33.1279 44.2C33.5719 44.104 33.9199 44.002 34.1719 43.894L34.4599 45.676C34.3399 45.736 34.1719 45.802 33.9559 45.874C33.7519 45.934 33.5119 45.988 33.2359 46.036C32.9719 46.096 32.6839 46.144 32.3719 46.18C32.0599 46.216 31.7419 46.234 31.4179 46.234C30.5899 46.234 29.8699 46.114 29.2579 45.874C28.6459 45.622 28.1419 45.28 27.7459 44.848C27.3499 44.404 27.0559 43.888 26.8639 43.3C26.6719 42.7 26.5759 42.046 26.5759 41.338ZM32.8939 40.366C32.8939 40.066 32.8519 39.784 32.7679 39.52C32.6839 39.244 32.5579 39.01 32.3899 38.818C32.2339 38.614 32.0359 38.458 31.7959 38.35C31.5679 38.23 31.2919 38.17 30.9679 38.17C30.6319 38.17 30.3379 38.236 30.0859 38.368C29.8339 38.488 29.6179 38.65 29.4379 38.854C29.2699 39.058 29.1379 39.292 29.0419 39.556C28.9459 39.82 28.8799 40.09 28.8439 40.366H32.8939ZM46.0751 41.284C46.0751 42.028 45.9671 42.706 45.7511 43.318C45.5351 43.93 45.2291 44.452 44.8331 44.884C44.4371 45.316 43.9571 45.652 43.3931 45.892C42.8411 46.132 42.2291 46.252 41.5571 46.252C40.8851 46.252 40.2731 46.132 39.7211 45.892C39.1691 45.652 38.6951 45.316 38.2991 44.884C37.9031 44.452 37.5911 43.93 37.3631 43.318C37.1471 42.706 37.0391 42.028 37.0391 41.284C37.0391 40.54 37.1471 39.868 37.3631 39.268C37.5911 38.656 37.9031 38.134 38.2991 37.702C38.7071 37.27 39.1871 36.94 39.7391 36.712C40.2911 36.472 40.8971 36.352 41.5571 36.352C42.2171 36.352 42.8231 36.472 43.3751 36.712C43.9391 36.94 44.4191 37.27 44.8151 37.702C45.2111 38.134 45.5171 38.656 45.7331 39.268C45.9611 39.868 46.0751 40.54 46.0751 41.284ZM43.8431 41.284C43.8431 40.348 43.6391 39.61 43.2311 39.07C42.8351 38.518 42.2771 38.242 41.5571 38.242C40.8371 38.242 40.2731 38.518 39.8651 39.07C39.4691 39.61 39.2711 40.348 39.2711 41.284C39.2711 42.232 39.4691 42.982 39.8651 43.534C40.2731 44.086 40.8371 44.362 41.5571 44.362C42.2771 44.362 42.8351 44.086 43.2311 43.534C43.6391 42.982 43.8431 42.232 43.8431 41.284ZM52.8801 46V32.392L55.0581 32.032V36.694C55.2981 36.61 55.5741 36.538 55.8861 36.478C56.2101 36.418 56.5281 36.388 56.8401 36.388C57.5961 36.388 58.2201 36.496 58.7121 36.712C59.2161 36.916 59.6181 37.21 59.9181 37.594C60.2181 37.966 60.4281 38.416 60.5481 38.944C60.6801 39.472 60.7461 40.06 60.7461 40.708V46H58.5681V41.05C58.5681 40.546 58.5321 40.12 58.4601 39.772C58.4001 39.412 58.2921 39.124 58.1361 38.908C57.9921 38.68 57.7941 38.518 57.5421 38.422C57.2901 38.314 56.9781 38.26 56.6061 38.26C56.3181 38.26 56.0241 38.29 55.7241 38.35C55.4241 38.41 55.2021 38.464 55.0581 38.512V46H52.8801ZM72.0506 41.284C72.0506 42.028 71.9426 42.706 71.7266 43.318C71.5106 43.93 71.2046 44.452 70.8086 44.884C70.4126 45.316 69.9326 45.652 69.3686 45.892C68.8166 46.132 68.2046 46.252 67.5326 46.252C66.8606 46.252 66.2486 46.132 65.6966 45.892C65.1446 45.652 64.6706 45.316 64.2746 44.884C63.8786 44.452 63.5666 43.93 63.3386 43.318C63.1226 42.706 63.0146 42.028 63.0146 41.284C63.0146 40.54 63.1226 39.868 63.3386 39.268C63.5666 38.656 63.8786 38.134 64.2746 37.702C64.6826 37.27 65.1626 36.94 65.7146 36.712C66.2666 36.472 66.8726 36.352 67.5326 36.352C68.1926 36.352 68.7986 36.472 69.3506 36.712C69.9146 36.94 70.3946 37.27 70.7906 37.702C71.1866 38.134 71.4926 38.656 71.7086 39.268C71.9366 39.868 72.0506 40.54 72.0506 41.284ZM69.8186 41.284C69.8186 40.348 69.6146 39.61 69.2066 39.07C68.8106 38.518 68.2526 38.242 67.5326 38.242C66.8126 38.242 66.2486 38.518 65.8406 39.07C65.4446 39.61 65.2466 40.348 65.2466 41.284C65.2466 42.232 65.4446 42.982 65.8406 43.534C66.2486 44.086 66.8126 44.362 67.5326 44.362C68.2526 44.362 68.8106 44.086 69.2066 43.534C69.6146 42.982 69.8186 42.232 69.8186 41.284ZM79.8971 40.078C79.6211 41.134 79.3211 42.166 78.9971 43.174C78.6851 44.17 78.3731 45.112 78.0611 46H76.2791C76.0391 45.448 75.7871 44.818 75.5231 44.11C75.2591 43.402 74.9951 42.646 74.7311 41.842C74.4671 41.038 74.2031 40.192 73.9391 39.304C73.6751 38.416 73.4171 37.51 73.1651 36.586H75.4691C75.5771 37.09 75.7031 37.636 75.8471 38.224C75.9911 38.8 76.1411 39.394 76.2971 40.006C76.4531 40.606 76.6151 41.194 76.7831 41.77C76.9511 42.346 77.1191 42.874 77.2871 43.354C77.4671 42.802 77.6411 42.232 77.8091 41.644C77.9891 41.056 78.1571 40.468 78.3131 39.88C78.4691 39.292 78.6131 38.722 78.7451 38.17C78.8891 37.606 79.0151 37.078 79.1231 36.586H80.7971C80.9051 37.078 81.0251 37.606 81.1571 38.17C81.2891 38.722 81.4271 39.292 81.5711 39.88C81.7271 40.468 81.8891 41.056 82.0571 41.644C82.2371 42.232 82.4171 42.802 82.5971 43.354C82.7531 42.874 82.9151 42.346 83.0831 41.77C83.2511 41.194 83.4131 40.606 83.5691 40.006C83.7371 39.394 83.8931 38.8 84.0371 38.224C84.1811 37.636 84.3071 37.09 84.4151 36.586H86.6651C86.4131 37.51 86.1551 38.416 85.8911 39.304C85.6271 40.192 85.3631 41.038 85.0991 41.842C84.8351 42.646 84.5711 43.402 84.3071 44.11C84.0431 44.818 83.7851 45.448 83.5331 46H81.7691C81.4571 45.112 81.1331 44.17 80.7971 43.174C80.4731 42.166 80.1731 41.134 79.8971 40.078ZM3.582 71H1.404V61.586H3.582V71ZM3.816 58.832C3.816 59.24 3.684 59.564 3.42 59.804C3.156 60.044 2.844 60.164 2.484 60.164C2.112 60.164 1.794 60.044 1.53 59.804C1.266 59.564 1.134 59.24 1.134 58.832C1.134 58.412 1.266 58.082 1.53 57.842C1.794 57.602 2.112 57.482 2.484 57.482C2.844 57.482 3.156 57.602 3.42 57.842C3.684 58.082 3.816 58.412 3.816 58.832ZM6.43261 59.102L8.61061 58.742V61.586H11.9586V63.404H8.61061V67.238C8.61061 67.994 8.73061 68.534 8.97061 68.858C9.21061 69.182 9.61861 69.344 10.1946 69.344C10.5906 69.344 10.9386 69.302 11.2386 69.218C11.5506 69.134 11.7966 69.056 11.9766 68.984L12.3366 70.712C12.0846 70.82 11.7546 70.928 11.3466 71.036C10.9386 71.156 10.4586 71.216 9.90661 71.216C9.23461 71.216 8.67061 71.126 8.21461 70.946C7.77061 70.766 7.41661 70.508 7.15261 70.172C6.88861 69.824 6.70261 69.41 6.59461 68.93C6.48661 68.438 6.43261 67.88 6.43261 67.256V59.102ZM24.2412 65.078C23.9652 66.134 23.6652 67.166 23.3412 68.174C23.0292 69.17 22.7172 70.112 22.4052 71H20.6232C20.3832 70.448 20.1312 69.818 19.8672 69.11C19.6032 68.402 19.3392 67.646 19.0752 66.842C18.8112 66.038 18.5472 65.192 18.2832 64.304C18.0192 63.416 17.7612 62.51 17.5092 61.586H19.8132C19.9212 62.09 20.0472 62.636 20.1912 63.224C20.3352 63.8 20.4852 64.394 20.6412 65.006C20.7972 65.606 20.9592 66.194 21.1272 66.77C21.2952 67.346 21.4632 67.874 21.6312 68.354C21.8112 67.802 21.9852 67.232 22.1532 66.644C22.3332 66.056 22.5012 65.468 22.6572 64.88C22.8132 64.292 22.9572 63.722 23.0892 63.17C23.2332 62.606 23.3592 62.078 23.4672 61.586H25.1412C25.2492 62.078 25.3692 62.606 25.5012 63.17C25.6332 63.722 25.7712 64.292 25.9152 64.88C26.0712 65.468 26.2332 66.056 26.4012 66.644C26.5812 67.232 26.7612 67.802 26.9412 68.354C27.0972 67.874 27.2592 67.346 27.4272 66.77C27.5952 66.194 27.7572 65.606 27.9132 65.006C28.0812 64.394 28.2372 63.8 28.3812 63.224C28.5252 62.636 28.6512 62.09 28.7592 61.586H31.0092C30.7572 62.51 30.4992 63.416 30.2352 64.304C29.9712 65.192 29.7072 66.038 29.4432 66.842C29.1792 67.646 28.9152 68.402 28.6512 69.11C28.3872 69.818 28.1292 70.448 27.8772 71H26.1132C25.8012 70.112 25.4772 69.17 25.1412 68.174C24.8172 67.166 24.5172 66.134 24.2412 65.078ZM41.1884 66.284C41.1884 67.028 41.0804 67.706 40.8644 68.318C40.6484 68.93 40.3424 69.452 39.9464 69.884C39.5504 70.316 39.0704 70.652 38.5064 70.892C37.9544 71.132 37.3424 71.252 36.6704 71.252C35.9984 71.252 35.3864 71.132 34.8344 70.892C34.2824 70.652 33.8084 70.316 33.4124 69.884C33.0164 69.452 32.7044 68.93 32.4764 68.318C32.2604 67.706 32.1524 67.028 32.1524 66.284C32.1524 65.54 32.2604 64.868 32.4764 64.268C32.7044 63.656 33.0164 63.134 33.4124 62.702C33.8204 62.27 34.3004 61.94 34.8524 61.712C35.4044 61.472 36.0104 61.352 36.6704 61.352C37.3304 61.352 37.9364 61.472 38.4884 61.712C39.0524 61.94 39.5324 62.27 39.9284 62.702C40.3244 63.134 40.6304 63.656 40.8464 64.268C41.0744 64.868 41.1884 65.54 41.1884 66.284ZM38.9564 66.284C38.9564 65.348 38.7524 64.61 38.3444 64.07C37.9484 63.518 37.3904 63.242 36.6704 63.242C35.9504 63.242 35.3864 63.518 34.9784 64.07C34.5824 64.61 34.3844 65.348 34.3844 66.284C34.3844 67.232 34.5824 67.982 34.9784 68.534C35.3864 69.086 35.9504 69.362 36.6704 69.362C37.3904 69.362 37.9484 69.086 38.3444 68.534C38.7524 67.982 38.9564 67.232 38.9564 66.284ZM48.9762 63.548C48.7962 63.488 48.5442 63.428 48.2202 63.368C47.9082 63.296 47.5422 63.26 47.1222 63.26C46.8822 63.26 46.6242 63.284 46.3482 63.332C46.0842 63.38 45.8982 63.422 45.7902 63.458V71H43.6122V62.036C44.0322 61.88 44.5542 61.736 45.1782 61.604C45.8142 61.46 46.5162 61.388 47.2842 61.388C47.4282 61.388 47.5962 61.4 47.7882 61.424C47.9802 61.436 48.1722 61.46 48.3642 61.496C48.5562 61.52 48.7422 61.556 48.9222 61.604C49.1022 61.64 49.2462 61.676 49.3542 61.712L48.9762 63.548ZM53.2299 65.258C53.5059 64.97 53.7999 64.664 54.1119 64.34C54.4239 64.004 54.7299 63.674 55.0299 63.35C55.3299 63.014 55.6119 62.696 55.8759 62.396C56.1519 62.084 56.3859 61.814 56.5779 61.586H59.1519C58.5519 62.258 57.9159 62.954 57.2439 63.674C56.5839 64.394 55.9179 65.096 55.2459 65.78C55.6059 66.08 55.9839 66.446 56.3799 66.878C56.7759 67.298 57.1599 67.748 57.5319 68.228C57.9039 68.708 58.2519 69.188 58.5759 69.668C58.8999 70.148 59.1699 70.592 59.3859 71H56.8659C56.6499 70.628 56.3979 70.238 56.1099 69.83C55.8339 69.422 55.5339 69.026 55.2099 68.642C54.8859 68.258 54.5559 67.898 54.2199 67.562C53.8839 67.214 53.5539 66.92 53.2299 66.68V71H51.0519V57.392L53.2299 57.032V65.258ZM63.504 69.434C64.08 69.434 64.5 69.368 64.764 69.236C65.028 69.092 65.16 68.852 65.16 68.516C65.16 68.204 65.016 67.946 64.728 67.742C64.452 67.538 63.99 67.316 63.342 67.076C62.946 66.932 62.58 66.782 62.244 66.626C61.92 66.458 61.638 66.266 61.398 66.05C61.158 65.834 60.966 65.576 60.822 65.276C60.69 64.964 60.624 64.586 60.624 64.142C60.624 63.278 60.942 62.6 61.578 62.108C62.214 61.604 63.078 61.352 64.17 61.352C64.722 61.352 65.25 61.406 65.754 61.514C66.258 61.61 66.636 61.706 66.888 61.802L66.492 63.566C66.252 63.458 65.946 63.362 65.574 63.278C65.202 63.182 64.77 63.134 64.278 63.134C63.834 63.134 63.474 63.212 63.198 63.368C62.922 63.512 62.784 63.74 62.784 64.052C62.784 64.208 62.808 64.346 62.856 64.466C62.916 64.586 63.012 64.7 63.144 64.808C63.276 64.904 63.45 65.006 63.666 65.114C63.882 65.21 64.146 65.312 64.458 65.42C64.974 65.612 65.412 65.804 65.772 65.996C66.132 66.176 66.426 66.386 66.654 66.626C66.894 66.854 67.068 67.118 67.176 67.418C67.284 67.718 67.338 68.078 67.338 68.498C67.338 69.398 67.002 70.082 66.33 70.55C65.67 71.006 64.722 71.234 63.486 71.234C62.658 71.234 61.992 71.162 61.488 71.018C60.984 70.886 60.63 70.778 60.426 70.694L60.804 68.876C61.128 69.008 61.512 69.134 61.956 69.254C62.412 69.374 62.928 69.434 63.504 69.434Z" fill="#414449"/>
</svg>
