<svg width="162" height="58" viewBox="0 0 162 58" fill="none" xmlns="http://www.w3.org/2000/svg">
<path fill-rule="evenodd" clip-rule="evenodd" d="M0.5 0H58.5V58H0.5V0ZM86.34 36.16C85.6067 36.16 84.8667 36.1334 84.12 36.08C83.3733 36.04 82.72 35.9467 82.16 35.8V22.34C82.4533 22.2867 82.7667 22.24 83.1 22.2C83.4333 22.1467 83.7733 22.1067 84.12 22.08C84.4667 22.0533 84.8067 22.0333 85.14 22.02C85.4867 22.0067 85.8133 22 86.12 22C86.96 22 87.74 22.0667 88.46 22.2C89.18 22.32 89.8 22.5267 90.32 22.82C90.8533 23.1133 91.2667 23.5 91.56 23.98C91.8533 24.46 92 25.0533 92 25.76C92 26.4133 91.84 26.9733 91.52 27.44C91.2133 27.9067 90.78 28.28 90.22 28.56C91.06 28.84 91.68 29.2533 92.08 29.8C92.48 30.3467 92.68 31.04 92.68 31.88C92.68 33.3066 92.16 34.38 91.12 35.1C90.08 35.8066 88.4867 36.16 86.34 36.16ZM84.64 29.76V33.98C84.92 34.0067 85.22 34.0267 85.54 34.04C85.86 34.0533 86.1533 34.06 86.42 34.06C86.94 34.06 87.42 34.0267 87.86 33.96C88.3133 33.8933 88.7 33.78 89.02 33.62C89.3533 33.4467 89.6133 33.22 89.8 32.94C90 32.66 90.1 32.3 90.1 31.86C90.1 31.0733 89.8133 30.5267 89.24 30.22C88.6667 29.9133 87.8733 29.76 86.86 29.76H84.64ZM84.64 27.78H86.42C87.38 27.78 88.1333 27.6467 88.68 27.38C89.2267 27.1 89.5 26.6067 89.5 25.9C89.5 25.2333 89.2133 24.76 88.64 24.48C88.08 24.2 87.3467 24.06 86.44 24.06C86.0533 24.06 85.7067 24.0667 85.4 24.08C85.1067 24.0933 84.8533 24.1133 84.64 24.14V27.78ZM104.165 35.68C103.698 35.8 103.091 35.92 102.345 36.04C101.598 36.1733 100.778 36.24 99.8845 36.24C99.0445 36.24 98.3379 36.12 97.7645 35.88C97.2045 35.64 96.7512 35.3066 96.4045 34.88C96.0712 34.4533 95.8312 33.9467 95.6845 33.36C95.5379 32.76 95.4645 32.1067 95.4645 31.4V25.54H97.8845V31.02C97.8845 32.14 98.0445 32.94 98.3645 33.42C98.6979 33.9 99.2712 34.14 100.085 34.14C100.378 34.14 100.685 34.1266 101.005 34.1C101.338 34.0733 101.585 34.04 101.745 34V25.54H104.165V35.68ZM116.185 25.54C115.105 29.5133 113.851 33.1133 112.425 36.34C112.158 36.94 111.885 37.4533 111.605 37.88C111.325 38.3066 111.011 38.66 110.665 38.94C110.318 39.22 109.931 39.42 109.505 39.54C109.078 39.6733 108.585 39.74 108.025 39.74C107.651 39.74 107.278 39.7 106.905 39.62C106.545 39.54 106.271 39.4533 106.085 39.36L106.525 37.42C107.005 37.6067 107.478 37.7 107.945 37.7C108.571 37.7 109.058 37.5467 109.405 37.24C109.765 36.9467 110.078 36.4867 110.345 35.86C109.585 34.3933 108.851 32.7933 108.145 31.06C107.451 29.3267 106.831 27.4867 106.285 25.54H108.865C108.998 26.1 109.158 26.7067 109.345 27.36C109.545 28.0133 109.758 28.68 109.985 29.36C110.211 30.0267 110.451 30.6933 110.705 31.36C110.958 32.0267 111.211 32.6467 111.465 33.22C111.891 32.0333 112.291 30.7733 112.665 29.44C113.038 28.0933 113.378 26.7933 113.685 25.54H116.185ZM123.484 25.88C123.95 25.7467 124.557 25.62 125.304 25.5C126.05 25.38 126.877 25.32 127.784 25.32C128.637 25.32 129.35 25.44 129.924 25.68C130.497 25.9067 130.95 26.2333 131.284 26.66C131.63 27.0733 131.87 27.58 132.004 28.18C132.15 28.7667 132.224 29.4133 132.224 30.12V36H129.804V30.5C129.804 29.94 129.764 29.4667 129.684 29.08C129.617 28.68 129.497 28.36 129.324 28.12C129.164 27.8667 128.937 27.6867 128.644 27.58C128.364 27.46 128.017 27.4 127.604 27.4C127.297 27.4 126.977 27.42 126.644 27.46C126.31 27.5 126.064 27.5333 125.904 27.56V36H123.484V25.88ZM145.043 30.76C145.043 31.5867 144.923 32.34 144.683 33.02C144.443 33.7 144.103 34.28 143.663 34.76C143.223 35.24 142.69 35.6133 142.063 35.88C141.45 36.1467 140.77 36.28 140.023 36.28C139.276 36.28 138.596 36.1467 137.983 35.88C137.37 35.6133 136.843 35.24 136.403 34.76C135.963 34.28 135.616 33.7 135.363 33.02C135.123 32.34 135.003 31.5867 135.003 30.76C135.003 29.9333 135.123 29.1867 135.363 28.52C135.616 27.84 135.963 27.26 136.403 26.78C136.856 26.3 137.39 25.9333 138.003 25.68C138.616 25.4133 139.29 25.28 140.023 25.28C140.756 25.28 141.43 25.4133 142.043 25.68C142.67 25.9333 143.203 26.3 143.643 26.78C144.083 27.26 144.423 27.84 144.663 28.52C144.916 29.1867 145.043 29.9333 145.043 30.76ZM142.563 30.76C142.563 29.72 142.336 28.9 141.883 28.3C141.443 27.6867 140.823 27.38 140.023 27.38C139.223 27.38 138.596 27.6867 138.143 28.3C137.703 28.9 137.483 29.72 137.483 30.76C137.483 31.8133 137.703 32.6467 138.143 33.26C138.596 33.8734 139.223 34.18 140.023 34.18C140.823 34.18 141.443 33.8734 141.883 33.26C142.336 32.6467 142.563 31.8133 142.563 30.76ZM152.961 32.86C152.615 33.9667 152.268 35.0133 151.921 36H149.941C149.675 35.3867 149.395 34.6866 149.101 33.9C148.808 33.1133 148.515 32.2733 148.221 31.38C147.928 30.4867 147.635 29.5467 147.341 28.56C147.048 27.5733 146.761 26.5667 146.481 25.54H149.041C149.161 26.1 149.301 26.7067 149.461 27.36C149.621 28 149.788 28.66 149.961 29.34C150.135 30.0067 150.315 30.66 150.501 31.3C150.688 31.94 150.875 32.5267 151.061 33.06C151.261 32.4467 151.455 31.8133 151.641 31.16C151.841 30.5067 152.028 29.8533 152.201 29.2C152.375 28.5467 152.535 27.9133 152.681 27.3C152.841 26.6733 152.981 26.0867 153.101 25.54H154.961C155.081 26.0867 155.215 26.6733 155.361 27.3C155.508 27.9133 155.661 28.5467 155.821 29.2C155.995 29.8533 156.175 30.5067 156.361 31.16C156.561 31.8133 156.761 32.4467 156.961 33.06C157.135 32.5267 157.315 31.94 157.501 31.3C157.688 30.66 157.868 30.0067 158.041 29.34C158.228 28.66 158.401 28 158.561 27.36C158.721 26.7067 158.861 26.1 158.981 25.54H161.481C161.201 26.5667 160.915 27.5733 160.621 28.56C160.328 29.5467 160.035 30.4867 159.741 31.38C159.448 32.2733 159.155 33.1133 158.861 33.9C158.568 34.6866 158.281 35.3867 158.001 36H156.041C155.695 35.0133 155.335 33.9667 154.961 32.86C154.601 31.74 154.268 30.5933 153.961 29.42C153.655 30.5933 153.321 31.74 152.961 32.86Z" fill="#F7EAE3"/>
</svg>
